<?xml version="1.0" standalone="no"?>
<!DOCTYPE svg PUBLIC "-//W3C//DTD SVG 20010904//EN"
 "http://www.w3.org/TR/2001/REC-SVG-20010904/DTD/svg10.dtd">
<svg version="1.0" xmlns="http://www.w3.org/2000/svg"
 width="623.000000pt" height="623.000000pt" viewBox="0 0 623.000000 623.000000"
 preserveAspectRatio="xMidYMid meet">
<metadata>
Created by potrace 1.11, written by Peter Selinger 2001-2013
</metadata>
<g transform="translate(0.000000,623.000000) scale(0.100000,-0.100000)"
fill="#000000" stroke="none">
<path d="M2865 6080 c-456 -41 -893 -172 -1290 -388 -109 -59 -341 -215 -445
-299 -190 -152 -419 -394 -563 -596 -236 -329 -408 -724 -486 -1112 -41 -203
-54 -342 -54 -570 0 -391 58 -699 200 -1060 141 -358 350 -678 633 -969 501
-513 1116 -818 1860 -923 156 -21 624 -24 770 -5 418 57 721 148 1070 323 307
154 560 337 805 584 458 460 733 1011 832 1668 13 84 17 179 17 382 1 234 -2
289 -22 415 -135 846 -594 1555 -1317 2035 -419 278 -874 442 -1400 505 -123
15 -488 21 -610 10z m511 -887 c14 -9 34 -33 45 -55 11 -21 26 -38 33 -38 7 0
16 -14 20 -31 10 -53 7 -209 -6 -232 -6 -12 -13 -44 -14 -70 -2 -48 -7 -58
-83 -163 -32 -44 -51 -124 -51 -224 -1 -30 -7 -84 -15 -120 -7 -36 -11 -76 -8
-90 2 -14 -3 -56 -11 -93 -9 -38 -16 -88 -16 -112 0 -27 -8 -58 -21 -80 -26
-43 -36 -88 -48 -203 -9 -79 -17 -102 -84 -243 -49 -101 -83 -161 -100 -172
-15 -10 -27 -30 -31 -53 -4 -20 -18 -57 -31 -83 -28 -54 -55 -158 -65 -256 -8
-70 -44 -181 -81 -244 -14 -23 -25 -74 -35 -150 -8 -64 -18 -129 -24 -146 -5
-16 -11 -78 -13 -137 -3 -83 -8 -113 -23 -135 -10 -15 -29 -50 -41 -77 -23
-48 -24 -48 -61 -41 -39 7 -62 27 -62 57 0 11 -20 29 -53 48 -51 28 -54 33
-77 102 -12 40 -36 96 -51 124 -16 28 -29 65 -29 82 0 18 -10 43 -25 60 l-25
30 22 46 22 45 -26 48 c-16 29 -29 74 -33 113 -5 40 -21 93 -42 140 -26 55
-46 130 -79 287 -47 232 -63 288 -148 528 -54 154 -117 272 -137 259 -5 -3
-22 -31 -38 -62 -27 -55 -29 -65 -36 -247 -4 -104 -7 -231 -6 -281 2 -109 -39
-365 -67 -421 -25 -50 -60 -293 -65 -458 -4 -97 -9 -139 -22 -166 -14 -29 -16
-43 -7 -67 9 -26 7 -35 -16 -66 -53 -76 -200 -102 -281 -51 -36 22 -42 32 -71
127 -74 234 -75 251 -24 328 20 30 54 73 75 95 54 58 89 143 89 220 0 45 7 78
26 121 14 31 30 83 36 113 5 30 19 73 30 95 18 35 19 51 13 145 -3 58 -13 129
-20 157 -31 109 -35 177 -15 261 43 182 71 256 111 298 l38 40 17 145 c17 142
18 146 54 192 26 33 40 63 45 95 7 47 47 107 117 175 16 14 28 35 28 46 0 23
35 52 62 52 27 0 44 -36 71 -150 32 -136 42 -199 72 -470 16 -138 33 -245 45
-276 10 -29 26 -101 34 -160 9 -60 22 -130 30 -155 8 -25 17 -81 21 -125 6
-65 12 -88 39 -129 38 -58 64 -152 72 -263 6 -66 37 -198 100 -419 19 -69 39
-69 105 -3 40 40 50 58 55 94 4 25 15 53 25 62 12 11 19 31 19 54 0 20 6 59
14 86 9 31 12 64 7 89 -11 64 4 132 39 171 16 19 55 85 85 145 30 61 68 126
85 145 25 29 30 43 30 85 0 35 7 63 24 92 14 23 40 87 58 142 29 89 33 112 32
205 0 91 -5 118 -33 205 -19 55 -43 120 -56 145 -18 36 -24 70 -29 166 -6 120
-6 122 19 152 15 18 25 42 25 62 0 18 9 44 19 59 11 14 26 65 34 111 8 47 22
102 31 123 13 32 19 37 36 32 35 -11 81 6 125 46 32 29 135 82 173 89 1 0 14
-7 28 -17z m1294 -403 c33 0 78 -48 96 -102 10 -31 34 -70 60 -98 52 -56 71
-101 84 -209 10 -82 9 -85 -16 -118 -30 -40 -50 -41 -139 -9 -82 30 -161 83
-174 117 -13 39 -84 52 -256 49 -214 -3 -318 -44 -460 -179 -45 -42 -64 -72
-94 -140 -48 -111 -46 -165 7 -272 39 -77 43 -81 277 -249 39 -28 97 -73 130
-101 33 -27 99 -73 147 -100 57 -32 117 -79 174 -134 48 -47 90 -85 95 -85 4
0 10 -13 14 -29 3 -16 20 -51 37 -77 45 -70 85 -153 93 -194 4 -19 25 -89 47
-154 38 -111 40 -126 35 -201 -4 -66 -12 -100 -44 -176 -22 -52 -46 -110 -52
-130 -6 -20 -23 -47 -37 -60 -14 -13 -34 -40 -44 -60 -10 -19 -47 -62 -83 -95
-74 -70 -123 -90 -299 -123 -96 -18 -127 -21 -170 -13 -29 6 -79 13 -111 16
-32 4 -75 14 -95 22 -20 9 -50 19 -67 23 -25 6 -31 12 -33 38 -2 18 2 41 8 53
14 26 50 27 50 2 0 -24 24 -45 75 -68 62 -28 308 -24 401 6 127 41 246 117
258 165 4 15 17 43 30 63 13 20 29 55 36 77 7 22 24 60 37 84 12 24 23 59 23
78 0 19 5 54 11 79 16 60 -13 202 -52 259 -15 23 -32 60 -38 83 -7 23 -27 74
-46 114 -19 40 -35 77 -35 83 0 6 -14 19 -32 30 -18 10 -49 35 -69 54 -80 78
-148 131 -200 154 -30 13 -67 38 -83 56 -18 18 -44 33 -65 37 -20 4 -56 23
-81 43 -25 21 -66 51 -91 68 -25 17 -51 38 -58 46 -7 9 -35 21 -64 29 -42 11
-64 25 -123 84 -58 57 -83 91 -123 172 l-51 102 0 102 c0 95 3 109 35 182 55
127 95 186 187 278 72 71 104 95 180 133 89 44 98 46 220 55 148 11 203 23
278 61 31 15 74 32 97 38 23 6 52 20 65 31 16 14 32 19 52 15 16 -3 37 -5 46
-5z m-2083 -185 c2 -6 -10 -19 -27 -28 l-30 -18 0 31 c0 28 3 31 27 28 14 -2
28 -8 30 -13z m2328 -407 c45 -21 29 -74 -25 -78 -46 -4 -65 1 -90 21 l-25 21
28 24 c31 26 71 31 112 12z m-3457 -2366 c11 -14 10 -19 -5 -29 -35 -26 -69
-8 -59 31 5 22 11 26 29 21 12 -4 28 -14 35 -23z"/>
</g>
</svg>
